<?xml version="1.0" encoding="UTF-8"?>
<svg version="1.1" xmlns="http://www.w3.org/2000/svg" width="500" height="500">
<path d="M0 0 C21.24822949 22.26183761 30.26626414 52.8258174 29.7109375 82.98828125 C28.6172544 114.81445949 14.08858751 142.65046562 -8.89257812 164.14941406 C-11.2989141 166.22034734 -13.84403946 167.89222527 -16.5390625 169.56640625 C-15.36609619 169.85136963 -15.36609619 169.85136963 -14.16943359 170.14208984 C0.3536025 173.70155396 14.82757268 177.42618186 29.06781006 182.003479 C30.98609084 182.61696245 32.91123366 183.20885541 34.83642578 183.80029297 C40.96566798 185.82211201 45.54208655 187.58403989 49.55981445 192.76318359 C51.33019279 196.30585885 51.27281614 199.75682187 50.4609375 203.56640625 C48.28492838 207.9184245 46.07552273 210.86101606 41.4609375 212.56640625 C33.96178685 212.61929166 27.30631594 210.39650299 20.3359375 207.87890625 C-36.15308259 188.35335365 -99.27950512 183.95431278 -154.47094727 210.13842773 C-164.6535577 215.17962852 -174.15808802 221.17470602 -183.5390625 227.56640625 C-182.69835205 227.54545898 -181.8576416 227.52451172 -180.99145508 227.50292969 C-177.80627673 227.43386248 -174.62148573 227.38418051 -171.43579102 227.34667969 C-170.0694506 227.32683358 -168.70319191 227.29974711 -167.3371582 227.26464844 C-156.53649152 226.99453246 -146.65142143 227.82622471 -137.2578125 233.57421875 C-136.525625 234.27289063 -135.7934375 234.9715625 -135.0390625 235.69140625 C-134.28625 236.37460937 -133.5334375 237.0578125 -132.7578125 237.76171875 C-125.58788632 246.82511135 -123.30965534 257.85516021 -120.50390625 268.8125 C-120.02812437 270.63565255 -119.55129614 272.45853232 -119.07350159 274.28115845 C-118.05729664 278.16580877 -117.04786134 282.05212776 -116.04394531 285.93997192 C-114.46822305 292.04209086 -112.87823666 298.1404299 -111.28515625 304.23803711 C-110.74518542 306.30530702 -110.205238 308.37258304 -109.66531372 310.43986511 C-109.26243322 311.9823697 -109.26243322 311.9823697 -108.85141373 313.556036 C-108.03194496 316.69589806 -107.21400211 319.83615411 -106.39645386 322.97651672 C-102.81438685 336.72989473 -99.1855554 350.47007648 -95.51171875 364.19921875 C-95.15830068 365.52038161 -95.15830068 365.52038161 -94.79774284 366.86823463 C-92.77429249 374.43073432 -90.74714192 381.9922392 -88.7170105 389.552948 C-87.68837386 393.38414977 -86.66194845 397.21593768 -85.63703728 401.04813766 C-85.08508406 403.10891136 -84.53033535 405.16891876 -83.97547913 407.22891235 C-83.48971657 409.04544815 -83.48971657 409.04544815 -82.99414062 410.89868164 C-82.71123169 411.95213272 -82.42832275 413.0055838 -82.13684082 414.09095764 C-81.5390625 416.56640625 -81.5390625 416.56640625 -81.5390625 418.56640625 C-80.89522299 418.56364087 -80.25138348 418.56087549 -79.58803368 418.55802631 C-63.91365985 418.49174001 -48.23933485 418.44211283 -32.56485558 418.41096973 C-24.98475482 418.39550841 -17.40474769 418.37443301 -9.82470703 418.34008789 C-3.21705265 418.31016295 3.39053392 418.2908259 9.99825418 418.28414077 C13.49621183 418.28023372 16.99397548 418.27106716 20.49187088 418.24921608 C24.39907689 418.22500661 28.30609403 418.22443825 32.21337891 418.22583008 C33.37000031 418.21504425 34.5266217 418.20425842 35.71829224 418.19314575 C41.35918439 418.21491879 45.6399614 418.27081199 50.4609375 421.56640625 C53.86836044 425.31457148 54.02809234 429.25086147 53.8828125 434.125 C53.18164776 438.18266631 51.48880218 439.81380199 48.4609375 442.56640625 C45.18869666 444.61822479 42.62897494 444.81942815 38.79736328 444.82811928 C37.63566274 444.83558477 36.47396219 444.84305026 35.2770586 444.85074198 C33.99969176 444.84880725 32.72232492 444.84687251 31.40625 444.84487915 C30.03584558 444.84988148 28.66544411 444.85575709 27.29504681 444.86243188 C23.52388265 444.87826231 19.75279294 444.88166435 15.98159957 444.88308048 C11.91396569 444.88677077 7.84637281 444.90192763 3.77876282 444.91569519 C-3.2803301 444.93800612 -10.33940846 444.95299884 -17.39852905 444.96306229 C-27.65276079 444.97768573 -37.90694263 445.00324343 -48.16114509 445.03139357 C-64.86083468 445.07693137 -81.56053155 445.11349523 -98.26025391 445.14453125 C-114.37452546 445.1744971 -130.488778 445.20879856 -146.60302734 445.24902344 C-148.08302164 445.25271576 -148.08302164 445.25271576 -149.59291482 445.25648268 C-153.5619327 445.26640326 -157.53095049 445.27635714 -161.49996817 445.28635464 C-200.92303687 445.38562145 -240.34612652 445.48088529 -279.76927733 445.54083966 C-288.3310659 445.55387632 -296.8927953 445.57179568 -305.45455074 445.60001385 C-309.62320235 445.61318771 -313.79185626 445.62263645 -317.96051979 445.63111186 C-319.77300372 445.63571321 -321.58548436 445.64204664 -323.39795494 445.650388 C-349.59230113 445.76982245 -349.59230113 445.76982245 -355.5390625 440.56640625 C-358.17454716 437.83679714 -359.01569552 435.24363304 -359.94771957 431.5989399 C-360.61959443 429.28960602 -361.50678226 427.13816702 -362.43804932 424.92086792 C-364.41699493 420.02628767 -365.89743902 415.12620667 -367.21777344 410.02001953 C-367.45628934 409.11897366 -367.69480524 408.21792778 -367.9405489 407.28957748 C-368.72414331 404.32349355 -369.49877072 401.35514564 -370.2734375 398.38671875 C-370.82952898 396.27549083 -371.38621837 394.16442032 -371.94346619 392.05349731 C-373.42691987 386.42787246 -374.90280664 380.8002903 -376.37685776 375.17219543 C-378.80947913 365.88980327 -381.25374319 356.61046283 -383.69551659 347.33047485 C-384.60430682 343.87551108 -385.51217482 340.42030582 -386.41999817 336.96508789 C-389.65985356 324.64266678 -392.9312095 312.32982927 -396.27716446 300.03577805 C-396.86671229 297.86903474 -397.4547228 295.70188039 -398.04220581 293.53457642 C-400.12967824 285.83492899 -400.12967824 285.83492899 -402.24230957 278.14215088 C-403.16841134 274.7916102 -404.07979135 271.43738188 -404.98828125 268.08203125 C-405.25253403 267.14505402 -405.5167868 266.20807678 -405.78904724 265.2427063 C-407.98986931 257.01942096 -409.18292003 248.99179447 -404.8125 241.3203125 C-401.90397266 237.31439601 -398.09087974 234.50123231 -393.5390625 232.56640625 C-391.35604191 232.25549316 -391.35604191 232.25549316 -388.96437073 232.16992188 C-388.06421958 232.13378784 -387.16406843 232.09765381 -386.23663998 232.0604248 C-385.26595357 232.03146118 -384.29526716 232.00249756 -383.29516602 231.97265625 C-381.76453821 231.91712585 -381.76453821 231.91712585 -380.20298862 231.86047363 C-368.95204074 231.47113968 -357.69713004 231.25811113 -346.44140625 231.06640625 C-344.18876108 231.02568845 -341.9361214 230.98466537 -339.68348694 230.94335938 C-333.80142319 230.83609897 -327.91930855 230.73199745 -322.03717041 230.62890625 C-317.33356962 230.54634309 -312.62998575 230.46286003 -307.92641258 230.3787384 C-305.60326987 230.33725686 -303.28012047 230.29614836 -300.95696449 230.25541687 C-295.25024807 230.15434188 -289.54392823 230.04478046 -283.83773804 229.91723633 C-274.51735438 229.71359168 -265.21039886 229.51634734 -255.88785839 229.66268921 C-252.39103814 229.71446163 -248.89468464 229.72482662 -245.39752388 229.73095703 C-243.82127865 229.74592301 -242.24505132 229.78188013 -240.66987419 229.84179688 C-232.96814953 230.13278336 -227.04024115 229.66728173 -221.0828619 224.43464661 C-218.96874762 222.38918796 -216.97159434 220.25857323 -214.99644566 218.07949638 C-210.7280097 213.64790384 -205.52484303 210.14202645 -200.5390625 206.56640625 C-199.57154053 205.8707959 -199.57154053 205.8707959 -198.58447266 205.16113281 C-179.35751588 191.49735199 -158.65703036 181.61829893 -136.5390625 173.56640625 C-137.19390625 173.11652344 -137.84875 172.66664063 -138.5234375 172.203125 C-163.98247665 154.25953667 -180.33086193 130.10966162 -186.703125 99.390625 C-187.88679068 92.3597127 -187.97981639 85.30629593 -187.9765625 78.19140625 C-187.97766525 77.138927 -187.97766525 77.138927 -187.97879028 76.06518555 C-187.89107329 44.05802812 -175.05117309 16.6729718 -152.46508789 -5.8125 C-147.84913772 -10.28889664 -143.00522972 -14.03522005 -137.5390625 -17.43359375 C-136.7759375 -17.94148438 -136.0128125 -18.449375 -135.2265625 -18.97265625 C-90.88914304 -47.41277729 -36.12799318 -34.62729192 0 0 Z M-132.5390625 11.56640625 C-133.4465625 12.37980469 -134.3540625 13.19320312 -135.2890625 14.03125 C-152.06412506 29.89766334 -161.4240744 51.11133134 -162.51513672 74.13696289 C-163.18606883 100.16378503 -154.17084554 121.71688855 -136.5390625 140.56640625 C-127.70780398 149.64340414 -116.62664762 156.7169753 -104.5390625 160.56640625 C-103.65992188 160.86417969 -102.78078125 161.16195312 -101.875 161.46875 C-80.82387891 167.49525828 -58.14445759 164.01742011 -39.1640625 153.69921875 C-34.15707351 150.8347432 -29.7744382 147.47819637 -25.5390625 143.56640625 C-24.68699219 142.78265625 -23.83492187 141.99890625 -22.95703125 141.19140625 C-7.25535694 126.12533195 2.95977065 105.81803156 3.6640625 83.8515625 C4.06017837 57.79012811 -2.61150026 35.65198578 -20.65209961 16.34448242 C-32.17716946 4.53344821 -47.91301621 -5.30044064 -64.5390625 -7.43359375 C-65.34601563 -7.541875 -66.15296875 -7.65015625 -66.984375 -7.76171875 C-90.9201714 -10.54324861 -114.41758841 -4.71460563 -132.5390625 11.56640625 Z M-178.8228147 253.67599761 C-183.29544119 253.73899244 -187.76752701 253.83106639 -192.23974609 253.91772461 C-194.25706247 253.95563543 -196.27438128 253.99341751 -198.29170227 254.03108215 C-203.71430981 254.13281032 -209.13687447 254.2366632 -214.55942869 254.34119105 C-217.95043715 254.40649916 -221.34145302 254.47140838 -224.73247147 254.53619576 C-235.35403675 254.73921428 -245.97557663 254.94349173 -256.59708059 255.14969438 C-268.84191744 255.38741059 -281.08682467 255.62095017 -293.3318094 255.85092062 C-302.82008354 256.0293594 -312.30828448 256.21138937 -321.79643691 256.39618593 C-327.45635733 256.50634539 -333.11629729 256.61497954 -338.7763176 256.7198925 C-344.0837747 256.81837318 -349.39112693 256.92129389 -354.69843102 257.02769279 C-356.64834792 257.06601141 -358.5982974 257.10271049 -360.5482769 257.13769913 C-363.20232494 257.18556625 -365.85619534 257.23918307 -368.51010132 257.29429626 C-369.28741116 257.30694722 -370.064721 257.31959817 -370.86558568 257.33263248 C-374.00590225 257.40310798 -376.53848104 257.56621243 -379.5390625 258.56640625 C-378.89125366 263.78928822 -377.81886484 268.7452527 -376.46044922 273.82592773 C-376.25003148 274.62560061 -376.03961374 275.42527349 -375.82281971 276.24917889 C-375.12524178 278.89629973 -374.42202612 281.54188784 -373.71875 284.1875 C-373.22223139 286.06687906 -372.72604809 287.94634673 -372.23017883 289.82589722 C-370.90367675 294.84949443 -369.57213968 299.87174328 -368.239254 304.89365005 C-367.14007885 309.03658697 -366.04321839 313.18013527 -364.94632244 317.32367611 C-362.49302213 326.59075906 -360.03585513 335.8568093 -357.57568359 345.12207031 C-355.50868511 352.90675649 -353.44745686 360.69293353 -351.39313889 368.48097515 C-349.82201868 374.4366554 -348.24471996 380.39067167 -346.66387939 386.34378052 C-346.04275283 388.6863826 -345.42370815 391.02953775 -344.80682373 393.3732605 C-343.96725121 396.5604196 -343.11957053 399.74530671 -342.26953125 402.9296875 C-342.03309402 403.83476044 -341.7966568 404.73983337 -341.55305481 405.67233276 C-341.32953842 406.50274078 -341.10602203 407.3331488 -340.87573242 408.1887207 C-340.68830978 408.89575638 -340.50088715 409.60279205 -340.30778503 410.33125305 C-339.31398644 413.22084196 -337.94611515 415.85811524 -336.5390625 418.56640625 C-286.31938715 418.79838724 -236.12531469 418.64817535 -185.9140625 417.62890625 C-184.82272381 417.60702492 -183.73138512 417.58514359 -182.60697556 417.56259918 C-158.2446711 417.07344429 -133.88818725 416.52155228 -109.5390625 415.56640625 C-110.18504585 410.3652561 -111.24831155 405.42980173 -112.60180664 400.37036133 C-112.81064358 399.57702865 -113.01948051 398.78369596 -113.23464584 397.9663229 C-113.92741614 395.33852022 -114.62580974 392.71224664 -115.32421875 390.0859375 C-115.81794129 388.21751732 -116.31131654 386.34900534 -116.80436707 384.48040771 C-118.12529783 379.47870282 -119.45124467 374.47834222 -120.77876282 369.47838211 C-122.14988746 364.31337317 -123.51858868 359.14772189 -124.88769531 353.98217773 C-126.53575396 347.76469712 -128.18435341 341.54736184 -129.83505249 335.33058167 C-132.91130081 323.74052507 -135.96158703 312.14420692 -138.97685051 300.53814125 C-140.07102119 296.33230123 -141.17240403 292.12834532 -142.27451038 287.92457867 C-143.11287263 284.72441103 -143.94484636 281.52278669 -144.76834106 278.3187561 C-145.66395266 274.83674594 -146.57597505 271.35944857 -147.4921875 267.8828125 C-147.74534225 266.87990173 -147.99849701 265.87699097 -148.25932312 264.84368896 C-148.62450798 263.47775604 -148.62450798 263.47775604 -148.99707031 262.08422852 C-149.20003723 261.30169205 -149.40300415 260.51915558 -149.61212158 259.71290588 C-150.84802137 256.85095601 -152.06953292 255.49729453 -154.5390625 253.56640625 C-157.17830458 253.25189652 -159.37323435 253.17349495 -161.99526978 253.29444885 C-162.74098098 253.31194421 -163.48669219 253.32943957 -164.25500071 253.3474651 C-165.8593936 253.38605772 -167.46360332 253.43299672 -169.06753588 253.48746037 C-172.31900444 253.59131927 -175.57007184 253.63255613 -178.8228147 253.67599761 Z " fill="#0296B1" transform="translate(435.5390625,41.43359375)"/>
<path d="M0 0 C2 1 2 1 3 3 C195.06 3.495 195.06 3.495 391 4 C391 4.33 391 4.66 391 5 C348.56236394 5.12817011 306.1247258 5.25563474 263.68708487 5.38218227 C258.6515787 5.39719856 253.61607255 5.41222056 248.58056641 5.42724609 C247.57828966 5.43023671 246.57601291 5.43322732 245.54336414 5.43630856 C229.41647155 5.48444187 213.28958039 5.53303526 197.16268972 5.58180541 C180.55581645 5.6320166 163.94894172 5.68171777 147.34206557 5.73096704 C138.03922276 5.75856957 128.73638074 5.78639698 119.43354034 5.81480408 C101.14525462 5.87054306 82.85697002 5.9240472 64.56865191 5.96810198 C56.73795753 5.98708245 48.90729577 6.00983445 41.07662606 6.03755045 C36.90748141 6.0513637 32.73833614 6.0611123 28.56917715 6.06938839 C26.75712743 6.07380204 24.94508079 6.07991986 23.13304377 6.08801365 C-2.70275238 6.20126536 -2.70275238 6.20126536 -8 2 C-6.68 1.67 -5.36 1.34 -4 1 C-4 1.66 -4 2.32 -4 3 C-3.01 2.67 -2.02 2.34 -1 2 C-0.67 1.34 -0.34 0.68 0 0 Z " fill="#2192A5" transform="translate(89,481)"/>
<path d="M0 0 C0.33 0 0.66 0 1 0 C1.17956099 7.54156142 0.16875567 12.7468665 -4 19 C-4.2475 19.9075 -4.495 20.815 -4.75 21.75 C-6.37130151 25.96538392 -8.93572838 28.74300689 -12 32 C-12.99 31.67 -13.98 31.34 -15 31 C-14.56429688 30.44054687 -14.12859375 29.88109375 -13.6796875 29.3046875 C-7.06389258 20.39770819 -2.88751694 10.66890062 0 0 Z " fill="#1390A6" transform="translate(436,141)"/>
<path d="M0 0 C11.22 0 22.44 0 34 0 C33.01 1.32 32.02 2.64 31 4 C31 3.34 31 2.68 31 2 C20.77 2 10.54 2 0 2 C0 1.34 0 0.68 0 0 Z " fill="#1E8FA3" transform="translate(69,273)"/>
<path d="M0 0 C0.66 1.32 1.32 2.64 2 4 C2.99 3.67 3.98 3.34 5 3 C5.66 5.31 6.32 7.62 7 10 C6.34 10.66 5.68 11.32 5 12 C5.33 12.99 5.66 13.98 6 15 C6.73561727 19.045895 7.16063964 22.05902213 6 26 C0.23404255 8.85106383 0.23404255 8.85106383 0 0 Z " fill="#0F94AC" transform="translate(249,136)"/>
<path d="M0 0 C0.66 0.33 1.32 0.66 2 1 C1.27554687 1.68964844 0.55109375 2.37929688 -0.1953125 3.08984375 C-5.93680934 8.64085028 -10.93481907 14.05317182 -15 21 C-16 18 -16 18 -15 15 C-14.01 14.34 -13.02 13.68 -12 13 C-12.33 10.36 -12.66 7.72 -13 5 C-12.01 5.33 -11.02 5.66 -10 6 C-10 6.66 -10 7.32 -10 8 C-9.34 8 -8.68 8 -8 8 C-7.95875 7.401875 -7.9175 6.80375 -7.875 6.1875 C-6.55453314 2.88633285 -4.14712081 2.37686535 -1 1 C-0.67 0.67 -0.34 0.34 0 0 Z " fill="#158FA6" transform="translate(302,52)"/>
<path d="M0 0 C0.97812873 3.05628064 1.00835683 4.85277447 0.00390625 7.890625 C-0.33930664 8.95410156 -0.33930664 8.95410156 -0.68945312 10.0390625 C-0.93630859 10.76867187 -1.18316406 11.49828125 -1.4375 12.25 C-1.68048828 12.99507812 -1.92347656 13.74015625 -2.17382812 14.5078125 C-2.77332981 16.34158235 -3.38544487 18.17122004 -4 20 C-6.12999997 16.20960634 -6.16702456 13.34263862 -6 9 C-4.68 9 -3.36 9 -2 9 C-2 8.34 -2 7.68 -2 7 C-2.99 6.67 -3.98 6.34 -5 6 C-4.67 5.34 -4.34 4.68 -4 4 C-3.34 4 -2.68 4 -2 4 C-2 3.01 -2 2.02 -2 1 C-1.34 0.67 -0.68 0.34 0 0 Z " fill="#0D94A8" transform="translate(462,140)"/>
<path d="M0 0 C7.03128878 0.43384548 13.329015 1.74321997 20 4 C16.28720531 5.23759823 12.68693654 5.35608897 8.8125 5.5625 C8.06291016 5.60568359 7.31332031 5.64886719 6.54101562 5.69335938 C4.69421625 5.79922685 2.84713166 5.9000976 1 6 C1.66 4.35 2.32 2.7 3 1 C2.01 0.67 1.02 0.34 0 0 Z " fill="#0E92AC" transform="translate(372,9)"/>
<path d="M0 0 C0.33 1.32 0.66 2.64 1 4 C0.13568359 4.33644531 0.13568359 4.33644531 -0.74609375 4.6796875 C-4.4854348 6.87015071 -6.55742325 10.44057737 -9.09765625 13.8828125 C-9.72542969 14.58148438 -10.35320312 15.28015625 -11 16 C-11.99 16 -12.98 16 -14 16 C-14 16.99 -14 17.98 -14 19 C-15.98 19.99 -15.98 19.99 -18 21 C-14.19136341 12.66515761 -6.44407205 6.31256037 0 0 Z " fill="#148EA4" transform="translate(287,32)"/>
<path d="M0 0 C0.66 0 1.32 0 2 0 C2.4125 0.94875 2.825 1.8975 3.25 2.875 C5.0040131 6.00716624 5.70851757 6.86500606 9 8 C9 8.66 9 9.32 9 10 C8.34 10 7.68 10 7 10 C7.78130071 12.49552484 7.78130071 12.49552484 9 15 C9.99 15.33 10.98 15.66 12 16 C11.835 16.86625 11.67 17.7325 11.5 18.625 C11.02781452 21.81225199 10.92344882 24.78485027 11 28 C10.67 28 10.34 28 10 28 C9.84144531 27.34515625 9.68289063 26.6903125 9.51953125 26.015625 C7.64678465 18.69018525 5.0064036 11.92564261 2 5 C1.32744132 3.33570224 0.6588076 1.66978884 0 0 Z " fill="#1B8FA5" transform="translate(427,74)"/>
<path d="M0 0 C1.8746854 2.8120281 2.51369289 4.464468 3.2890625 7.66796875 C3.50820313 8.56064453 3.72734375 9.45332031 3.953125 10.37304688 C4.17484375 11.30181641 4.3965625 12.23058594 4.625 13.1875 C4.85445313 14.12787109 5.08390625 15.06824219 5.3203125 16.03710938 C5.88552569 18.35683851 6.44519925 20.67776258 7 23 C6.01 22.67 5.02 22.34 4 22 C4 20.02 4 18.04 4 16 C3.01 15.67 2.02 15.34 1 15 C1 13.35 1 11.7 1 10 C0.34 10 -0.32 10 -1 10 C-2.46726798 6.18510326 -1.43336419 3.70988378 0 0 Z " fill="#1790A5" transform="translate(347,436)"/>
<path d="M0 0 C0 0.33 0 0.66 0 1 C-0.589021 1.13575439 -1.17804199 1.27150879 -1.78491211 1.41137695 C-4.50349497 2.04062676 -7.22048291 2.67652484 -9.9375 3.3125 C-10.86369141 3.52583984 -11.78988281 3.73917969 -12.74414062 3.95898438 C-18.00837168 5.19654045 -23.06803641 6.61681639 -28.12719727 8.53588867 C-30 9 -30 9 -33 8 C-32.34 8 -31.68 8 -31 8 C-31 7.34 -31 6.68 -31 6 C-30.20078125 5.82984375 -29.4015625 5.6596875 -28.578125 5.484375 C-21.75700641 3.97924555 -15.27830032 2.1763712 -8.75390625 -0.328125 C-5.51711725 -1.11780969 -3.22070473 -0.73995573 0 0 Z " fill="#1C90A2" transform="translate(330,235)"/>
<path d="M0 0 C1.08203125 1.859375 1.08203125 1.859375 2 4 C1.02065076 5.67888441 0.01656081 7.34338239 -1 9 C-1.28486114 10.99402796 -1.56729315 12.99012477 -1.75 14.99609375 C-2.10102952 17.80981472 -3.00794572 20.35452192 -4 23 C-3.01 23.33 -2.02 23.66 -1 24 C-2.65 24.66 -4.3 25.32 -6 26 C-5.75763107 16.83404773 -2.89264444 8.60321558 0 0 Z " fill="#1690A5" transform="translate(255,77)"/>
<path d="M0 0 C1.43473929 2.6802822 2.39715699 5.14749077 3.0703125 8.109375 C3.33134766 9.24052734 3.33134766 9.24052734 3.59765625 10.39453125 C3.77167969 11.17183594 3.94570313 11.94914062 4.125 12.75 C4.30675781 13.54277344 4.48851562 14.33554687 4.67578125 15.15234375 C5.12175014 17.10052366 5.56149151 19.05012731 6 21 C5.34 21 4.68 21 4 21 C4 20.34 4 19.68 4 19 C2.68 19.33 1.36 19.66 0 20 C-0.33 18.35 -0.66 16.7 -1 15 C-0.01 15 0.98 15 2 15 C1.67 13.824375 1.34 12.64875 1 11.4375 C0.0030467 7.4988324 -0.16869203 4.04860871 0 0 Z " fill="#1190A6" transform="translate(315,315)"/>
<path d="M0 0 C2.97366555 0.88406273 4.7127547 1.68303967 6.8125 4 C8.49883311 8.26020996 8.61781497 12.46668235 8 17 C7.34 17.66 6.68 18.32 6 19 C5.80508548 17.54263913 5.61930642 16.08405407 5.4375 14.625 C5.33308594 13.81289063 5.22867187 13.00078125 5.12109375 12.1640625 C5 10 5 10 6 8 C5.34 8 4.68 8 4 8 C4 6.35 4 4.7 4 3 C2.68 2.67 1.36 2.34 0 2 C0 1.34 0 0.68 0 0 Z " fill="#178FA3" transform="translate(481,461)"/>
<path d="M0 0 C2 1 2 1 3.125 3.75 C3.91973395 6.70186896 4.17810598 8.97219837 4 12 C5.32 12.66 6.64 13.32 8 14 C7.01 14.33 6.02 14.66 5 15 C5.33 15.66 5.66 16.32 6 17 C6.039992 18.99960012 6.04346799 21.00047242 6 23 C3.94267095 19.3672388 2.92594546 15.50916232 1.875 11.5 C1.69324219 10.83613281 1.51148438 10.17226563 1.32421875 9.48828125 C0.44293188 6.16854651 0 3.4651581 0 0 Z " fill="#1E8EA6" transform="translate(309,389)"/>
<path d="M0 0 C1.7824918 3.33311475 2.48792856 6.24480943 3 10 C0.03 9.505 0.03 9.505 -3 9 C-3 9.66 -3 10.32 -3 11 C-2.34 11.33 -1.68 11.66 -1 12 C-1.99 12.66 -2.98 13.32 -4 14 C-4.56561146 8.34388537 -2.71391278 4.77357872 0 0 Z " fill="#0D92AC" transform="translate(260,66)"/>
<path d="M0 0 C2 1 2 1 3 3 C2.34 3 1.68 3 1 3 C0.67 4.65 0.34 6.3 0 8 C-7.625 9 -7.625 9 -11 9 C-7.37 6.03 -3.74 3.06 0 0 Z " fill="#0A92AE" transform="translate(236,247)"/>
<path d="M0 0 C0.66 0.33 1.32 0.66 2 1 C0.9375 3.9375 0.9375 3.9375 -1 7 C-3.64854482 7.80607886 -5.28120292 7.98624555 -8 8 C-9.10472656 8.01417969 -10.20945313 8.02835937 -11.34765625 8.04296875 C-14.56628855 8.06048035 -17.78168791 8.0435561 -21 8 C-21 7.67 -21 7.34 -21 7 C-19.90300781 6.91363281 -18.80601562 6.82726562 -17.67578125 6.73828125 C-16.22124094 6.59751928 -14.76681933 6.45552705 -13.3125 6.3125 C-12.59126953 6.25900391 -11.87003906 6.20550781 -11.12695312 6.15039062 C-5.86790508 5.59807051 -3.47027998 4.23689015 0 0 Z " fill="#1092AA" transform="translate(214,265)"/>
<path d="M0 0 C6.57142857 5 6.57142857 5 8 10 C5.03 9.67 2.06 9.34 -1 9 C-0.7525 7.329375 -0.7525 7.329375 -0.5 5.625 C0.0455458 2.27967967 0.0455458 2.27967967 0 0 Z " fill="#0B95AF" transform="translate(299,277)"/>
<path d="M0 0 C2.96368275 4.44552413 3.22507635 7.9333317 3.5625 13.1875 C3.64628906 14.45980469 3.73007812 15.73210937 3.81640625 17.04296875 C3.87699219 18.01878906 3.93757813 18.99460937 4 20 C3.34 20 2.68 20 2 20 C1.32741333 17.66836622 0.66152556 15.3347961 0 13 C-0.226875 12.29875 -0.45375 11.5975 -0.6875 10.875 C-1.10044695 8.39731828 -0.54838469 6.43726528 0 4 C0 2.68 0 1.36 0 0 Z " fill="#0C92AC" transform="translate(458,81)"/>
<path d="M0 0 C0 0.66 0 1.32 0 2 C-0.99 2 -1.98 2 -3 2 C-3.061875 2.61875 -3.12375 3.2375 -3.1875 3.875 C-4 6 -4 6 -6.5625 7.25 C-7.366875 7.4975 -8.17125 7.745 -9 8 C-9 8.66 -9 9.32 -9 10 C-9.66 10 -10.32 10 -11 10 C-11 10.99 -11 11.98 -11 13 C-11.66 13 -12.32 13 -13 13 C-11.73189061 7.08215617 -8.7151965 4.41406916 -4 1 C-2 0 -2 0 0 0 Z " fill="#168EA2" transform="translate(42,275)"/>
<path d="M0 0 C-0.97447737 3.50811852 -1.92157031 4.93404776 -4.75 7.3125 C-8.21187268 9.11001082 -10.16571972 9.36516955 -14 9 C-12.875 7.5 -12.875 7.5 -11 6 C-7.8125 5.8125 -7.8125 5.8125 -5 6 C-4.87625 5.195625 -4.7525 4.39125 -4.625 3.5625 C-4.41875 2.716875 -4.2125 1.87125 -4 1 C-2 0 -2 0 0 0 Z " fill="#1793A4" transform="translate(485,245)"/>
<path d="M0 0 C2.475 0.99 2.475 0.99 5 2 C4.67 5.96 4.34 9.92 4 14 C2.30942525 10.61885051 1.54184533 8.3700175 0.875 4.75 C0.70742188 3.85796875 0.53984375 2.9659375 0.3671875 2.046875 C0.18542969 1.03367187 0.18542969 1.03367187 0 0 Z " fill="#1591A7" transform="translate(47,368)"/>
<path d="M0 0 C-0.33 0.99 -0.66 1.98 -1 3 C-1.99 3 -2.98 3 -4 3 C-4 3.66 -4 4.32 -4 5 C-3.34 5.33 -2.68 5.66 -2 6 C-5.67410785 7.17571451 -9.16929183 7.07366746 -13 7 C-4.25 0 -4.25 0 0 0 Z " fill="#1192A7" transform="translate(402,192)"/>
<path d="M0 0 C2 1 2 1 3 3 C5.11825886 9.35477659 6.28519051 15.298023 6 22 C3.9282933 18.35118324 2.92431922 14.46766307 1.875 10.4375 C1.69324219 9.76525391 1.51148438 9.09300781 1.32421875 8.40039062 C0.56143029 5.51269145 0 3.0002579 0 0 Z " fill="#1F8FA4" transform="translate(285,300)"/>
<path d="M0 0 C0.66 0.33 1.32 0.66 2 1 C-3.625 5 -3.625 5 -7 5 C-7.33 5.66 -7.66 6.32 -8 7 C-9.64363134 7.72159424 -11.31050386 8.39351421 -13 9 C-13.66 8.34 -14.32 7.68 -15 7 C-12.54595776 5.80283341 -10.08748321 4.6170654 -7.625 3.4375 C-6.57699219 2.92413086 -6.57699219 2.92413086 -5.5078125 2.40039062 C-3.69947784 1.53969288 -1.85148044 0.76347564 0 0 Z " fill="#1A8EA0" transform="translate(281,222)"/>
<path d="M0 0 C0.99 0.33 1.98 0.66 3 1 C1.52485505 3.1695061 0.0451561 5.33563707 -1.4375 7.5 C-1.85837891 8.12003906 -2.27925781 8.74007812 -2.71289062 9.37890625 C-3.78308137 10.93710398 -4.88879518 12.47078051 -6 14 C-6.33 14 -6.66 14 -7 14 C-7 12.35 -7 10.7 -7 9 C-6.01 9 -5.02 9 -4 9 C-4 8.01 -4 7.02 -4 6 C-3.34 6 -2.68 6 -2 6 C-2 5.01 -2 4.02 -2 3 C-1.34 3 -0.68 3 0 3 C0 2.01 0 1.02 0 0 Z " fill="#1890A0" transform="translate(445,179)"/>
<path d="M0 0 C-2.80804268 2.96404505 -5.18315774 5.44499019 -9 7 C-8.625 4.0625 -8.625 4.0625 -8 1 C-5.29120665 -0.35439668 -2.99066732 -0.06501451 0 0 Z " fill="#1492A8" transform="translate(428,203)"/>
<path d="M0 0 C0.99 0.495 0.99 0.495 2 1 C2 1.99 2 2.98 2 4 C3.32 4.66 4.64 5.32 6 6 C5.67 6.33 5.34 6.66 5 7 C4.76924918 8.34747084 4.58846937 9.70377565 4.4375 11.0625 C4.293125 12.361875 4.14875 13.66125 4 15 C1.32820751 10.22894198 0 5.46088946 0 0 Z " fill="#1592A8" transform="translate(55,397)"/>
<path d="M0 0 C0.33 0.66 0.66 1.32 1 2 C1.66 2.33 2.32 2.66 3 3 C2.67 3.66 2.34 4.32 2 5 C2.66 5 3.32 5 4 5 C4 5.66 4 6.32 4 7 C2.56068883 6.54738642 1.12361001 6.08767021 -0.3125 5.625 C-1.11300781 5.36976562 -1.91351563 5.11453125 -2.73828125 4.8515625 C-5 4 -5 4 -8 2 C-7.05125 2.04125 -6.1025 2.0825 -5.125 2.125 C-1.89755144 2.34973818 -1.89755144 2.34973818 0 0 Z " fill="#1392A5" transform="translate(388,34)"/>
<path d="M0 0 C0.99 0.33 1.98 0.66 3 1 C3.625 2.625 3.625 2.625 4 5 C4.309375 6.7325 4.309375 6.7325 4.625 8.5 C4.95721394 11.60066341 4.84584616 13.12159815 4 16 C3.32586789 14.08594633 2.6609668 12.16863974 2 10.25 C1.62875 9.18265625 1.2575 8.1153125 0.875 7.015625 C0 4 0 4 0 0 Z " fill="#1C8FA3" transform="translate(251,146)"/>
<path d="M0 0 C0.66 0 1.32 0 2 0 C2 1.98 2 3.96 2 6 C2.66 6 3.32 6 4 6 C4 8.97 4 11.94 4 15 C1.4785724 9.9571448 0 5.66021426 0 0 Z " fill="#1891A9" transform="translate(41,344)"/>
<path d="M0 0 C3.96 0 7.92 0 12 0 C12.33 1.32 12.66 2.64 13 4 C12.01 4.33 11.02 4.66 10 5 C9.34 4.67 8.68 4.34 8 4 C8 3.01 8 2.02 8 1 C5.36 1 2.72 1 0 1 C0 0.67 0 0.34 0 0 Z " fill="#1094A9" transform="translate(42,274)"/>
<path d="M0 0 C1.57554035 2.88628401 2.46276373 5.53342384 3.125 8.75 C3.29257812 9.54921875 3.46015625 10.3484375 3.6328125 11.171875 C3.81457031 12.07679688 3.81457031 12.07679688 4 13 C3.34 13 2.68 13 2 13 C2 11.68 2 10.36 2 9 C0.68 8.34 -0.64 7.68 -2 7 C-1.34 4.69 -0.68 2.38 0 0 Z " fill="#1491A8" transform="translate(275,139)"/>
<path d="M0 0 C0.66 0.33 1.32 0.66 2 1 C0.99806563 4.79303725 0.18975773 7.71536341 -2 11 C-2.96891192 5.62694301 -2.96891192 5.62694301 -3 3 C-1.5625 1 -1.5625 1 0 0 Z " fill="#0C94AC" transform="translate(54,378)"/>
<path d="M0 0 C0.66 0 1.32 0 2 0 C2.33 1.32 2.66 2.64 3 4 C-1.62730711 5.0448758 -6.28853878 5.51756279 -11 6 C-8.49751135 4.33167423 -6.58850813 3.37618326 -3.8125 2.375 C-3.09707031 2.11460937 -2.38164062 1.85421875 -1.64453125 1.5859375 C-1.10183594 1.39257812 -0.55914062 1.19921875 0 1 C0 0.67 0 0.34 0 0 Z " fill="#1E8EA5" transform="translate(299,214)"/>
<path d="M0 0 C-0.66 0 -1.32 0 -2 0 C-2.66 1.32 -3.32 2.64 -4 4 C-4.99 4 -5.98 4 -7 4 C-7 3.34 -7 2.68 -7 2 C-7.99 1.67 -8.98 1.34 -10 1 C-3.375 -1.125 -3.375 -1.125 0 0 Z " fill="#1293A9" transform="translate(384,202)"/>
<path d="M0 0 C2.50298434 2.93828597 3.46930939 5.17902761 4 9 C3.34 8.67 2.68 8.34 2 8 C2 7.34 2 6.68 2 6 C1.01 6.33 0.02 6.66 -1 7 C-1.33 5.68 -1.66 4.36 -2 3 C-1.34 3 -0.68 3 0 3 C0 2.01 0 1.02 0 0 Z " fill="#1591A6" transform="translate(454,71)"/>
<path d="M0 0 C2.4294516 3.6441774 2.16179575 5.71241272 2 10 C1.01 10 0.02 10 -1 10 C-2.46726798 6.18510326 -1.43336419 3.70988378 0 0 Z " fill="#0E92AB" transform="translate(347,436)"/>
<path d="M0 0 C5.96351455 1.27789598 8.48417174 4.33716394 12 9 C8.98472262 7.59422879 6.4052059 5.93873852 3.75 3.9375 C3.04359375 3.41027344 2.3371875 2.88304687 1.609375 2.33984375 C1.07828125 1.89769531 0.5471875 1.45554688 0 1 C0 0.67 0 0.34 0 0 Z " fill="#1C8DA2" transform="translate(398,44)"/>
<path d="M0 0 C-4.75 3.875 -4.75 3.875 -7 5 C-7 3.35 -7 1.7 -7 0 C-4.3333581 -1.33332095 -2.83319697 -0.67102033 0 0 Z " fill="#1191A9" transform="translate(266,259)"/>
<path d="M0 0 C3.45925163 1.2491742 6.14693203 2.67527795 9 5 C8.01 5.33 7.02 5.66 6 6 C6 5.34 6 4.68 6 4 C4.68 4.33 3.36 4.66 2 5 C0 1.125 0 1.125 0 0 Z " fill="#0E93A1" transform="translate(312,193)"/>
<path d="M0 0 C1 2 1 2 0.44140625 3.9453125 C0.15136719 4.66460937 -0.13867188 5.38390625 -0.4375 6.125 C-0.72496094 6.84945312 -1.01242187 7.57390625 -1.30859375 8.3203125 C-1.53675781 8.87460938 -1.76492188 9.42890625 -2 10 C-2.33 10 -2.66 10 -3 10 C-3.33 7.69 -3.66 5.38 -4 3 C-2.68 2.01 -1.36 1.02 0 0 Z " fill="#1390A9" transform="translate(280,82)"/>
<path d="M0 0 C2.97 0.495 2.97 0.495 6 1 C6.12375 1.639375 6.2475 2.27875 6.375 2.9375 C6.684375 3.9584375 6.684375 3.9584375 7 5 C7.66 5.33 8.32 5.66 9 6 C4.58763974 6 3.21615077 3.9302707 0 1 C0 0.67 0 0.34 0 0 Z " fill="#158FA7" transform="translate(286,204)"/>
<path d="M0 0 C2.475 0.99 2.475 0.99 5 2 C3.515 4.475 3.515 4.475 2 7 C1.01 6.34 0.02 5.68 -1 5 C-0.67 3.35 -0.34 1.7 0 0 Z " fill="#0D92A5" transform="translate(411,23)"/>
<path d="M0 0 C1.98 0.99 1.98 0.99 4 2 C3.01 2.33 2.02 2.66 1 3 C1.33 3.66 1.66 4.32 2 5 C2.039992 6.99960012 2.04346799 9.00047242 2 11 C-0.32590854 7.36576791 -0.16265833 4.22911669 0 0 Z " fill="#1393AA" transform="translate(313,401)"/>
<path d="M0 0 C0.66 0.33 1.32 0.66 2 1 C-0.25 3.5625 -0.25 3.5625 -3 6 C-4.32 5.67 -5.64 5.34 -7 5 C-4.69 3.35 -2.38 1.7 0 0 Z " fill="#13909C" transform="translate(248,239)"/>
<path d="M0 0 C2.12046792 3.53411321 2.53199289 6.94393835 3 11 C0.7522025 8.94766315 -0.0022242 7.99332739 -1 5 C-0.5625 2.3125 -0.5625 2.3125 0 0 Z " fill="#1A8FA6" transform="translate(93,443)"/>
<path d="M0 0 C2.56616632 3.84924948 2.55097676 6.4349304 3 11 C1.5 10 1.5 10 0 8 C-0.27345479 5.28153765 -0.13491285 2.74322801 0 0 Z " fill="#1992A0" transform="translate(86,417)"/>
<path d="M0 0 C1.98 1.65 3.96 3.3 6 5 C5.67 5.66 5.34 6.32 5 7 C3.68 6.67 2.36 6.34 1 6 C0.67 4.02 0.34 2.04 0 0 Z " fill="#168EA2" transform="translate(299,277)"/>
<path d="M0 0 C0.66 1.32 1.32 2.64 2 4 C0.02 6.97 0.02 6.97 -2 10 C-3 8 -3 8 -2.44140625 6.0546875 C-2.15136719 5.33539063 -1.86132812 4.61609375 -1.5625 3.875 C-1.27503906 3.15054688 -0.98757812 2.42609375 -0.69140625 1.6796875 C-0.46324219 1.12539062 -0.23507813 0.57109375 0 0 Z " fill="#1D8C9F" transform="translate(255,77)"/>
<path d="M0 0 C0.33 1.32 0.66 2.64 1 4 C0.01 4.33 -0.98 4.66 -2 5 C-2 5.99 -2 6.98 -2 8 C-2.99 8.33 -3.98 8.66 -5 9 C-3.7508258 5.54074837 -2.32472205 2.85306797 0 0 Z " fill="#1C90A0" transform="translate(268,53)"/>
<path d="M0 0 C1.41377341 2.63904371 2.37240135 5.07120629 3 8 C-1.875 3.25 -1.875 3.25 -3 1 C-2.01 0.67 -1.02 0.34 0 0 Z " fill="#1592A4" transform="translate(417,56)"/>
<path d="M0 0 C0.66 0.33 1.32 0.66 2 1 C1.375 2.9375 1.375 2.9375 0 5 C-3.125 5.75 -3.125 5.75 -6 6 C-4 4 -2 2 0 0 Z " fill="#158EA4" transform="translate(231,251)"/>
<path d="M0 0 C-1.24674659 2.49349318 -2.69960106 3.46640071 -5 5 C-5.66 5 -6.32 5 -7 5 C-6.625 3.0625 -6.625 3.0625 -6 1 C-4 0 -4 0 0 0 Z " fill="#0C95AB" transform="translate(268,61)"/>
</svg>
